<?xml version="1.0" standalone="no"?><!DOCTYPE svg PUBLIC "-//W3C//DTD SVG 1.1//EN" "http://www.w3.org/Graphics/SVG/1.1/DTD/svg11.dtd"><svg class="icon" width="16px" height="16.00px" viewBox="0 0 1024 1024" version="1.1" xmlns="http://www.w3.org/2000/svg"><path fill="#333333" d="M768 937.6c-6.4 0-9.6 0-16-3.2l-243.2-128-243.2 128c-9.6 6.4-22.4 3.2-35.2-3.2-9.6-6.4-16-19.2-12.8-32l44.8-268.8-195.2-192c-9.6-9.6-12.8-22.4-9.6-32s12.8-19.2 25.6-22.4l268.8-38.4 121.6-246.4c9.6-22.4 48-22.4 57.6 0l121.6 246.4 268.8 38.4c12.8 3.2 22.4 9.6 25.6 22.4s0 25.6-9.6 32l-195.2 192 44.8 268.8c3.2 12.8-3.2 25.6-12.8 32 6.4 6.4 0 6.4-6.4 6.4z" /></svg>